<mxfile host="app.diagrams.net" agent="Mozilla/5.0 (Windows NT 10.0; Win64; x64) AppleWebKit/537.36 (KHTML, like Gecko) Chrome/128.0.0.0 YaBrowser/24.10.0.0 Safari/537.36" version="25.0.3" pages="3">
  <diagram name="Страница — 1" id="W_UgIXRUbKrZrgNs80Sx">
    <mxGraphModel dx="1050" dy="567" grid="1" gridSize="10" guides="1" tooltips="1" connect="1" arrows="1" fold="1" page="1" pageScale="1" pageWidth="827" pageHeight="1169" math="0" shadow="0">
      <root>
        <mxCell id="0" />
        <mxCell id="1" parent="0" />
        <mxCell id="bYEhtiMngmKZuETAuR8b-8" style="edgeStyle=orthogonalEdgeStyle;rounded=0;orthogonalLoop=1;jettySize=auto;html=1;" parent="1" source="bYEhtiMngmKZuETAuR8b-1" target="bYEhtiMngmKZuETAuR8b-3" edge="1">
          <mxGeometry relative="1" as="geometry" />
        </mxCell>
        <mxCell id="bYEhtiMngmKZuETAuR8b-13" value="Акт приёмки" style="edgeLabel;html=1;align=center;verticalAlign=middle;resizable=0;points=[];" parent="bYEhtiMngmKZuETAuR8b-8" vertex="1" connectable="0">
          <mxGeometry x="0.096" y="-1" relative="1" as="geometry">
            <mxPoint y="-11" as="offset" />
          </mxGeometry>
        </mxCell>
        <mxCell id="bYEhtiMngmKZuETAuR8b-1" value="Построить дом" style="ellipse;whiteSpace=wrap;html=1;aspect=fixed;" parent="1" vertex="1">
          <mxGeometry x="400" y="270" width="100" height="100" as="geometry" />
        </mxCell>
        <mxCell id="bYEhtiMngmKZuETAuR8b-2" value="Архитектор" style="rounded=0;whiteSpace=wrap;html=1;" parent="1" vertex="1">
          <mxGeometry x="580" y="170" width="120" height="60" as="geometry" />
        </mxCell>
        <mxCell id="bYEhtiMngmKZuETAuR8b-3" value="Заказчик" style="rounded=0;whiteSpace=wrap;html=1;" parent="1" vertex="1">
          <mxGeometry x="600" y="290" width="120" height="60" as="geometry" />
        </mxCell>
        <mxCell id="bYEhtiMngmKZuETAuR8b-10" style="edgeStyle=orthogonalEdgeStyle;rounded=0;orthogonalLoop=1;jettySize=auto;html=1;" parent="1" source="bYEhtiMngmKZuETAuR8b-4" target="bYEhtiMngmKZuETAuR8b-1" edge="1">
          <mxGeometry relative="1" as="geometry" />
        </mxCell>
        <mxCell id="bYEhtiMngmKZuETAuR8b-12" value="Прайс-лист на материалы" style="edgeLabel;html=1;align=center;verticalAlign=middle;resizable=0;points=[];" parent="bYEhtiMngmKZuETAuR8b-10" vertex="1" connectable="0">
          <mxGeometry x="-0.0547" y="1" relative="1" as="geometry">
            <mxPoint y="-9" as="offset" />
          </mxGeometry>
        </mxCell>
        <mxCell id="bYEhtiMngmKZuETAuR8b-4" value="Строительный магазин" style="rounded=0;whiteSpace=wrap;html=1;" parent="1" vertex="1">
          <mxGeometry x="90" y="290" width="120" height="60" as="geometry" />
        </mxCell>
        <mxCell id="wiWix9Jzm3TReJ8C1RB1-1" value="" style="endArrow=none;dashed=1;html=1;rounded=0;entryX=0;entryY=0.5;entryDx=0;entryDy=0;exitX=0.5;exitY=0;exitDx=0;exitDy=0;startArrow=classic;startFill=1;" parent="1" source="bYEhtiMngmKZuETAuR8b-1" target="bYEhtiMngmKZuETAuR8b-2" edge="1">
          <mxGeometry width="50" height="50" relative="1" as="geometry">
            <mxPoint x="450" y="260" as="sourcePoint" />
            <mxPoint x="430" y="210" as="targetPoint" />
            <Array as="points">
              <mxPoint x="450" y="200" />
            </Array>
          </mxGeometry>
        </mxCell>
        <mxCell id="wiWix9Jzm3TReJ8C1RB1-2" value="Проект дома" style="edgeLabel;html=1;align=center;verticalAlign=middle;resizable=0;points=[];" parent="wiWix9Jzm3TReJ8C1RB1-1" vertex="1" connectable="0">
          <mxGeometry x="0.268" relative="1" as="geometry">
            <mxPoint y="-20" as="offset" />
          </mxGeometry>
        </mxCell>
        <mxCell id="zuny5vAK0EgHx5gSTCks-1" value="0" style="text;html=1;align=center;verticalAlign=middle;resizable=0;points=[];autosize=1;strokeColor=none;fillColor=none;" parent="1" vertex="1">
          <mxGeometry x="450" y="340" width="30" height="30" as="geometry" />
        </mxCell>
      </root>
    </mxGraphModel>
  </diagram>
  <diagram id="DCAiQpn4RNrGyOcacbHh" name="Страница — 2">
    <mxGraphModel dx="1050" dy="567" grid="1" gridSize="10" guides="1" tooltips="1" connect="1" arrows="1" fold="1" page="1" pageScale="1" pageWidth="827" pageHeight="1169" math="0" shadow="0">
      <root>
        <mxCell id="0" />
        <mxCell id="1" parent="0" />
        <mxCell id="5aO_xpohwjBV2gZUNpaE-9" style="edgeStyle=orthogonalEdgeStyle;rounded=0;orthogonalLoop=1;jettySize=auto;html=1;entryX=0;entryY=0.5;entryDx=0;entryDy=0;" parent="1" source="5aO_xpohwjBV2gZUNpaE-1" target="5aO_xpohwjBV2gZUNpaE-7" edge="1">
          <mxGeometry relative="1" as="geometry" />
        </mxCell>
        <mxCell id="mAwn3VymmNRw0GP6lAOR-1" value="Утвержденный проект" style="edgeLabel;html=1;align=center;verticalAlign=middle;resizable=0;points=[];" parent="5aO_xpohwjBV2gZUNpaE-9" vertex="1" connectable="0">
          <mxGeometry x="-0.6934" y="2" relative="1" as="geometry">
            <mxPoint x="29" y="-8" as="offset" />
          </mxGeometry>
        </mxCell>
        <mxCell id="5aO_xpohwjBV2gZUNpaE-1" value="Согласовать проект" style="ellipse;whiteSpace=wrap;html=1;aspect=fixed;" parent="1" vertex="1">
          <mxGeometry x="70" y="80" width="100" height="100" as="geometry" />
        </mxCell>
        <mxCell id="5aO_xpohwjBV2gZUNpaE-5" style="edgeStyle=orthogonalEdgeStyle;rounded=0;orthogonalLoop=1;jettySize=auto;html=1;entryX=1;entryY=0;entryDx=0;entryDy=0;" parent="1" source="5aO_xpohwjBV2gZUNpaE-4" target="5aO_xpohwjBV2gZUNpaE-1" edge="1">
          <mxGeometry relative="1" as="geometry">
            <Array as="points">
              <mxPoint x="155" y="60" />
            </Array>
          </mxGeometry>
        </mxCell>
        <mxCell id="5aO_xpohwjBV2gZUNpaE-6" value="Список требований" style="edgeLabel;html=1;align=center;verticalAlign=middle;resizable=0;points=[];" parent="5aO_xpohwjBV2gZUNpaE-5" vertex="1" connectable="0">
          <mxGeometry x="-0.1258" relative="1" as="geometry">
            <mxPoint x="-10" y="-10" as="offset" />
          </mxGeometry>
        </mxCell>
        <mxCell id="5aO_xpohwjBV2gZUNpaE-4" value="Заказчик" style="rounded=0;whiteSpace=wrap;html=1;" parent="1" vertex="1">
          <mxGeometry x="334" y="40" width="120" height="60" as="geometry" />
        </mxCell>
        <mxCell id="5aO_xpohwjBV2gZUNpaE-10" style="edgeStyle=orthogonalEdgeStyle;rounded=0;orthogonalLoop=1;jettySize=auto;html=1;entryX=0;entryY=0.5;entryDx=0;entryDy=0;" parent="1" source="5aO_xpohwjBV2gZUNpaE-7" target="5aO_xpohwjBV2gZUNpaE-8" edge="1">
          <mxGeometry relative="1" as="geometry">
            <Array as="points">
              <mxPoint x="550" y="300" />
              <mxPoint x="550" y="435" />
            </Array>
          </mxGeometry>
        </mxCell>
        <mxCell id="v023Iej20J9JiXjAn1hi-4" value="Акты выполненных работ" style="edgeLabel;html=1;align=center;verticalAlign=middle;resizable=0;points=[];" parent="5aO_xpohwjBV2gZUNpaE-10" vertex="1" connectable="0">
          <mxGeometry x="-0.1587" y="1" relative="1" as="geometry">
            <mxPoint x="69" y="-42" as="offset" />
          </mxGeometry>
        </mxCell>
        <mxCell id="5aO_xpohwjBV2gZUNpaE-13" style="edgeStyle=orthogonalEdgeStyle;rounded=0;orthogonalLoop=1;jettySize=auto;html=1;" parent="1" source="5aO_xpohwjBV2gZUNpaE-7" target="5aO_xpohwjBV2gZUNpaE-4" edge="1">
          <mxGeometry relative="1" as="geometry" />
        </mxCell>
        <mxCell id="5aO_xpohwjBV2gZUNpaE-16" value="Чеки на материалы" style="edgeLabel;html=1;align=center;verticalAlign=middle;resizable=0;points=[];" parent="5aO_xpohwjBV2gZUNpaE-13" vertex="1" connectable="0">
          <mxGeometry x="-0.0457" y="1" relative="1" as="geometry">
            <mxPoint x="57" y="-13" as="offset" />
          </mxGeometry>
        </mxCell>
        <mxCell id="v023Iej20J9JiXjAn1hi-1" style="edgeStyle=orthogonalEdgeStyle;rounded=0;orthogonalLoop=1;jettySize=auto;html=1;entryX=0;entryY=0.4;entryDx=0;entryDy=0;entryPerimeter=0;" parent="1" source="5aO_xpohwjBV2gZUNpaE-7" target="5aO_xpohwjBV2gZUNpaE-17" edge="1">
          <mxGeometry relative="1" as="geometry">
            <Array as="points">
              <mxPoint x="394" y="180" />
              <mxPoint x="507" y="180" />
              <mxPoint x="507" y="110" />
            </Array>
          </mxGeometry>
        </mxCell>
        <mxCell id="v023Iej20J9JiXjAn1hi-3" style="edgeStyle=orthogonalEdgeStyle;rounded=0;orthogonalLoop=1;jettySize=auto;html=1;entryX=0;entryY=0.75;entryDx=0;entryDy=0;" parent="1" source="5aO_xpohwjBV2gZUNpaE-7" target="5aO_xpohwjBV2gZUNpaE-17" edge="1">
          <mxGeometry relative="1" as="geometry">
            <Array as="points">
              <mxPoint x="550" y="300" />
              <mxPoint x="550" y="128" />
            </Array>
          </mxGeometry>
        </mxCell>
        <mxCell id="EflcHdLxjM_mklJmw0rF-1" style="edgeStyle=orthogonalEdgeStyle;rounded=0;orthogonalLoop=1;jettySize=auto;html=1;entryX=0;entryY=1;entryDx=0;entryDy=0;" edge="1" parent="1" source="5aO_xpohwjBV2gZUNpaE-7" target="5aO_xpohwjBV2gZUNpaE-8">
          <mxGeometry relative="1" as="geometry">
            <Array as="points">
              <mxPoint x="394" y="474" />
            </Array>
          </mxGeometry>
        </mxCell>
        <mxCell id="EflcHdLxjM_mklJmw0rF-2" value="Чеки на материалы" style="edgeLabel;html=1;align=center;verticalAlign=middle;resizable=0;points=[];" vertex="1" connectable="0" parent="EflcHdLxjM_mklJmw0rF-1">
          <mxGeometry x="0.1529" y="-2" relative="1" as="geometry">
            <mxPoint y="14" as="offset" />
          </mxGeometry>
        </mxCell>
        <mxCell id="5aO_xpohwjBV2gZUNpaE-7" value="Выполнить строительные работы" style="ellipse;whiteSpace=wrap;html=1;aspect=fixed;" parent="1" vertex="1">
          <mxGeometry x="334" y="240" width="120" height="120" as="geometry" />
        </mxCell>
        <mxCell id="5aO_xpohwjBV2gZUNpaE-11" style="edgeStyle=orthogonalEdgeStyle;rounded=0;orthogonalLoop=1;jettySize=auto;html=1;" parent="1" source="5aO_xpohwjBV2gZUNpaE-8" edge="1">
          <mxGeometry relative="1" as="geometry">
            <mxPoint x="790" y="435" as="targetPoint" />
          </mxGeometry>
        </mxCell>
        <mxCell id="5aO_xpohwjBV2gZUNpaE-12" value="Акт приёмки" style="edgeLabel;html=1;align=center;verticalAlign=middle;resizable=0;points=[];" parent="5aO_xpohwjBV2gZUNpaE-11" vertex="1" connectable="0">
          <mxGeometry x="-0.048" y="2" relative="1" as="geometry">
            <mxPoint x="-3" y="-13" as="offset" />
          </mxGeometry>
        </mxCell>
        <mxCell id="5aO_xpohwjBV2gZUNpaE-8" value="Сдать работу" style="ellipse;whiteSpace=wrap;html=1;aspect=fixed;" parent="1" vertex="1">
          <mxGeometry x="600" y="380" width="110" height="110" as="geometry" />
        </mxCell>
        <mxCell id="5aO_xpohwjBV2gZUNpaE-14" value="" style="endArrow=classic;html=1;rounded=0;" parent="1" edge="1">
          <mxGeometry width="50" height="50" relative="1" as="geometry">
            <mxPoint x="60" y="350" as="sourcePoint" />
            <mxPoint x="354" y="350" as="targetPoint" />
          </mxGeometry>
        </mxCell>
        <mxCell id="5aO_xpohwjBV2gZUNpaE-15" value="Прайс-лист на материалы" style="edgeLabel;html=1;align=center;verticalAlign=middle;resizable=0;points=[];" parent="5aO_xpohwjBV2gZUNpaE-14" vertex="1" connectable="0">
          <mxGeometry x="-0.2776" y="-2" relative="1" as="geometry">
            <mxPoint x="-46" y="-12" as="offset" />
          </mxGeometry>
        </mxCell>
        <mxCell id="5aO_xpohwjBV2gZUNpaE-17" value="Документация" style="shape=partialRectangle;whiteSpace=wrap;html=1;left=0;right=0;fillColor=none;" parent="1" vertex="1">
          <mxGeometry x="580" y="90" width="120" height="50" as="geometry" />
        </mxCell>
        <mxCell id="XwcovlvOH3MwFtu736ud-1" value="1" style="text;html=1;align=center;verticalAlign=middle;whiteSpace=wrap;rounded=0;" parent="1" vertex="1">
          <mxGeometry x="110" y="150" width="60" height="30" as="geometry" />
        </mxCell>
        <mxCell id="XwcovlvOH3MwFtu736ud-2" value="2" style="text;html=1;align=center;verticalAlign=middle;resizable=0;points=[];autosize=1;strokeColor=none;fillColor=none;" parent="1" vertex="1">
          <mxGeometry x="399" y="330" width="30" height="30" as="geometry" />
        </mxCell>
        <mxCell id="XwcovlvOH3MwFtu736ud-3" value="3" style="text;html=1;align=center;verticalAlign=middle;resizable=0;points=[];autosize=1;strokeColor=none;fillColor=none;" parent="1" vertex="1">
          <mxGeometry x="660" y="460" width="30" height="30" as="geometry" />
        </mxCell>
        <mxCell id="XwcovlvOH3MwFtu736ud-4" value="" style="endArrow=none;dashed=1;html=1;rounded=0;endFill=0;startArrow=classic;startFill=1;" parent="1" source="5aO_xpohwjBV2gZUNpaE-1" edge="1">
          <mxGeometry width="50" height="50" relative="1" as="geometry">
            <mxPoint x="70" y="50" as="sourcePoint" />
            <mxPoint x="120" y="10" as="targetPoint" />
          </mxGeometry>
        </mxCell>
        <mxCell id="mAwn3VymmNRw0GP6lAOR-2" value="Проект дома" style="edgeLabel;html=1;align=center;verticalAlign=middle;resizable=0;points=[];" parent="XwcovlvOH3MwFtu736ud-4" vertex="1" connectable="0">
          <mxGeometry x="0.16" y="2" relative="1" as="geometry">
            <mxPoint x="-38" y="-4" as="offset" />
          </mxGeometry>
        </mxCell>
      </root>
    </mxGraphModel>
  </diagram>
  <diagram id="jeqcWEtqF4Usn6GzuIkY" name="Страница — 3">
    <mxGraphModel dx="1050" dy="567" grid="1" gridSize="10" guides="1" tooltips="1" connect="1" arrows="1" fold="1" page="1" pageScale="1" pageWidth="827" pageHeight="1169" math="0" shadow="0">
      <root>
        <mxCell id="0" />
        <mxCell id="1" parent="0" />
        <mxCell id="jy8G8Nng52PNSWgKJ2qp-11" style="edgeStyle=orthogonalEdgeStyle;rounded=0;orthogonalLoop=1;jettySize=auto;html=1;" parent="1" source="inTPVH69TISjF2mxB6oV-1" edge="1">
          <mxGeometry relative="1" as="geometry">
            <mxPoint x="820" y="320" as="targetPoint" />
            <Array as="points">
              <mxPoint x="770" y="160" />
              <mxPoint x="770" y="320" />
            </Array>
          </mxGeometry>
        </mxCell>
        <mxCell id="9a0Qwq5kOkCFwRUUP4Nd-3" style="edgeStyle=orthogonalEdgeStyle;rounded=0;orthogonalLoop=1;jettySize=auto;html=1;" parent="1" source="inTPVH69TISjF2mxB6oV-1" edge="1">
          <mxGeometry relative="1" as="geometry">
            <mxPoint x="440" y="60" as="targetPoint" />
            <Array as="points">
              <mxPoint x="200" y="90" />
              <mxPoint x="440" y="90" />
            </Array>
          </mxGeometry>
        </mxCell>
        <mxCell id="inTPVH69TISjF2mxB6oV-1" value="заложить фундамент" style="ellipse;whiteSpace=wrap;html=1;aspect=fixed;" parent="1" vertex="1">
          <mxGeometry x="150" y="110" width="100" height="100" as="geometry" />
        </mxCell>
        <mxCell id="jy8G8Nng52PNSWgKJ2qp-6" style="edgeStyle=orthogonalEdgeStyle;rounded=0;orthogonalLoop=1;jettySize=auto;html=1;" parent="1" source="inTPVH69TISjF2mxB6oV-2" edge="1">
          <mxGeometry relative="1" as="geometry">
            <mxPoint x="820" y="320" as="targetPoint" />
          </mxGeometry>
        </mxCell>
        <mxCell id="jy8G8Nng52PNSWgKJ2qp-12" value="Акты выполненных работ" style="edgeLabel;html=1;align=center;verticalAlign=middle;resizable=0;points=[];" parent="jy8G8Nng52PNSWgKJ2qp-6" vertex="1" connectable="0">
          <mxGeometry x="-0.2421" y="-1" relative="1" as="geometry">
            <mxPoint x="145" y="-11" as="offset" />
          </mxGeometry>
        </mxCell>
        <mxCell id="9a0Qwq5kOkCFwRUUP4Nd-4" style="edgeStyle=orthogonalEdgeStyle;rounded=0;orthogonalLoop=1;jettySize=auto;html=1;" parent="1" source="inTPVH69TISjF2mxB6oV-2" edge="1">
          <mxGeometry relative="1" as="geometry">
            <mxPoint x="440" y="60" as="targetPoint" />
          </mxGeometry>
        </mxCell>
        <mxCell id="9a0Qwq5kOkCFwRUUP4Nd-6" value="Чеки на материалы" style="edgeLabel;html=1;align=center;verticalAlign=middle;resizable=0;points=[];" parent="9a0Qwq5kOkCFwRUUP4Nd-4" vertex="1" connectable="0">
          <mxGeometry x="0.4081" relative="1" as="geometry">
            <mxPoint x="70" y="-43" as="offset" />
          </mxGeometry>
        </mxCell>
        <mxCell id="inTPVH69TISjF2mxB6oV-2" value="поставить каркас" style="ellipse;whiteSpace=wrap;html=1;aspect=fixed;" parent="1" vertex="1">
          <mxGeometry x="390" y="270" width="100" height="100" as="geometry" />
        </mxCell>
        <mxCell id="jy8G8Nng52PNSWgKJ2qp-10" style="edgeStyle=orthogonalEdgeStyle;rounded=0;orthogonalLoop=1;jettySize=auto;html=1;" parent="1" edge="1">
          <mxGeometry relative="1" as="geometry">
            <mxPoint x="820" y="320" as="targetPoint" />
            <mxPoint x="730" y="450" as="sourcePoint" />
            <Array as="points">
              <mxPoint x="730" y="440" />
              <mxPoint x="770" y="440" />
              <mxPoint x="770" y="320" />
            </Array>
          </mxGeometry>
        </mxCell>
        <mxCell id="9a0Qwq5kOkCFwRUUP4Nd-5" style="edgeStyle=orthogonalEdgeStyle;rounded=0;orthogonalLoop=1;jettySize=auto;html=1;" parent="1" source="inTPVH69TISjF2mxB6oV-3" edge="1">
          <mxGeometry relative="1" as="geometry">
            <mxPoint x="440" y="60" as="targetPoint" />
            <Array as="points">
              <mxPoint x="690" y="90" />
              <mxPoint x="440" y="90" />
            </Array>
          </mxGeometry>
        </mxCell>
        <mxCell id="inTPVH69TISjF2mxB6oV-3" value="выполнить отделку" style="ellipse;whiteSpace=wrap;html=1;aspect=fixed;" parent="1" vertex="1">
          <mxGeometry x="640" y="400" width="100" height="100" as="geometry" />
        </mxCell>
        <mxCell id="inTPVH69TISjF2mxB6oV-4" value="" style="endArrow=classic;html=1;rounded=0;" parent="1" edge="1">
          <mxGeometry width="50" height="50" relative="1" as="geometry">
            <mxPoint x="10" y="156" as="sourcePoint" />
            <mxPoint x="149.99910853337127" y="156.31794165613832" as="targetPoint" />
          </mxGeometry>
        </mxCell>
        <mxCell id="ahUdFuY6RLHpLJt9kWJF-2" value="Утвержденный проект" style="edgeLabel;html=1;align=center;verticalAlign=middle;resizable=0;points=[];" parent="inTPVH69TISjF2mxB6oV-4" vertex="1" connectable="0">
          <mxGeometry x="-0.6513" y="-3" relative="1" as="geometry">
            <mxPoint x="36" y="-19" as="offset" />
          </mxGeometry>
        </mxCell>
        <mxCell id="inTPVH69TISjF2mxB6oV-6" value="" style="endArrow=classic;html=1;rounded=0;entryX=0;entryY=0.5;entryDx=0;entryDy=0;" parent="1" target="inTPVH69TISjF2mxB6oV-2" edge="1">
          <mxGeometry width="50" height="50" relative="1" as="geometry">
            <mxPoint x="80" y="160" as="sourcePoint" />
            <mxPoint x="80" y="320" as="targetPoint" />
            <Array as="points">
              <mxPoint x="80" y="320" />
            </Array>
          </mxGeometry>
        </mxCell>
        <mxCell id="inTPVH69TISjF2mxB6oV-7" value="" style="endArrow=classic;html=1;rounded=0;entryX=0;entryY=0.5;entryDx=0;entryDy=0;" parent="1" target="inTPVH69TISjF2mxB6oV-3" edge="1">
          <mxGeometry width="50" height="50" relative="1" as="geometry">
            <mxPoint x="80" y="160" as="sourcePoint" />
            <mxPoint x="80" y="480" as="targetPoint" />
            <Array as="points">
              <mxPoint x="80" y="450" />
            </Array>
          </mxGeometry>
        </mxCell>
        <mxCell id="inTPVH69TISjF2mxB6oV-9" value="" style="endArrow=classic;html=1;rounded=0;entryX=0;entryY=1;entryDx=0;entryDy=0;" parent="1" target="inTPVH69TISjF2mxB6oV-1" edge="1">
          <mxGeometry width="50" height="50" relative="1" as="geometry">
            <mxPoint x="100" y="360" as="sourcePoint" />
            <mxPoint x="150" y="310" as="targetPoint" />
            <Array as="points">
              <mxPoint x="100" y="195" />
            </Array>
          </mxGeometry>
        </mxCell>
        <mxCell id="SQQTzbu-RT5Z0lTKGNJJ-1" value="" style="endArrow=classic;html=1;rounded=0;" parent="1" edge="1">
          <mxGeometry width="50" height="50" relative="1" as="geometry">
            <mxPoint x="10" y="360" as="sourcePoint" />
            <mxPoint x="410" y="360" as="targetPoint" />
          </mxGeometry>
        </mxCell>
        <mxCell id="ahUdFuY6RLHpLJt9kWJF-1" value="Прайс-лист на материалы" style="edgeLabel;html=1;align=center;verticalAlign=middle;resizable=0;points=[];" parent="SQQTzbu-RT5Z0lTKGNJJ-1" vertex="1" connectable="0">
          <mxGeometry x="-0.8952" relative="1" as="geometry">
            <mxPoint x="49" y="-10" as="offset" />
          </mxGeometry>
        </mxCell>
        <mxCell id="SQQTzbu-RT5Z0lTKGNJJ-2" value="" style="endArrow=classic;html=1;rounded=0;entryX=0;entryY=1;entryDx=0;entryDy=0;" parent="1" target="inTPVH69TISjF2mxB6oV-3" edge="1">
          <mxGeometry width="50" height="50" relative="1" as="geometry">
            <mxPoint x="100" y="360" as="sourcePoint" />
            <mxPoint x="150" y="310" as="targetPoint" />
            <Array as="points">
              <mxPoint x="100" y="485" />
            </Array>
          </mxGeometry>
        </mxCell>
        <mxCell id="9a0Qwq5kOkCFwRUUP4Nd-1" value="4" style="text;html=1;align=center;verticalAlign=middle;resizable=0;points=[];autosize=1;strokeColor=none;fillColor=none;" parent="1" vertex="1">
          <mxGeometry x="200" y="180" width="30" height="30" as="geometry" />
        </mxCell>
        <mxCell id="9a0Qwq5kOkCFwRUUP4Nd-2" value="5" style="text;html=1;align=center;verticalAlign=middle;resizable=0;points=[];autosize=1;strokeColor=none;fillColor=none;" parent="1" vertex="1">
          <mxGeometry x="440" y="340" width="30" height="30" as="geometry" />
        </mxCell>
        <mxCell id="9a0Qwq5kOkCFwRUUP4Nd-7" value="6" style="text;html=1;align=center;verticalAlign=middle;resizable=0;points=[];autosize=1;strokeColor=none;fillColor=none;" parent="1" vertex="1">
          <mxGeometry x="690" y="470" width="30" height="30" as="geometry" />
        </mxCell>
      </root>
    </mxGraphModel>
  </diagram>
</mxfile>
